<?xml version="1.0" encoding="UTF-8" standalone="no"?>
<!-- Created with Inkscape (http://www.inkscape.org/) -->

<svg
   xmlns:dc="http://purl.org/dc/elements/1.1/"
   xmlns:cc="http://creativecommons.org/ns#"
   xmlns:rdf="http://www.w3.org/1999/02/22-rdf-syntax-ns#"
   xmlns:svg="http://www.w3.org/2000/svg"
   xmlns="http://www.w3.org/2000/svg"
   xmlns:sodipodi="http://sodipodi.sourceforge.net/DTD/sodipodi-0.dtd"
   xmlns:inkscape="http://www.inkscape.org/namespaces/inkscape"
   width="744.09448819"
   height="1052.3622047"
   id="svg2"
   version="1.1"
   inkscape:version="0.48.3.1 r9886"
   sodipodi:docname="seed_part_path.svg">
  <defs
     id="defs4" />
  <sodipodi:namedview
     id="base"
     pagecolor="#ffffff"
     bordercolor="#666666"
     borderopacity="1.0"
     inkscape:pageopacity="0.0"
     inkscape:pageshadow="2"
     inkscape:zoom="0.98994949"
     inkscape:cx="361.02588"
     inkscape:cy="571.00854"
     inkscape:document-units="px"
     inkscape:current-layer="layer1"
     showgrid="true"
     inkscape:window-width="1920"
     inkscape:window-height="1007"
     inkscape:window-x="0"
     inkscape:window-y="24"
     inkscape:window-maximized="1">
    <inkscape:grid
       type="xygrid"
       id="grid3001" />
  </sodipodi:namedview>
  <metadata
     id="metadata7">
    <rdf:RDF>
      <cc:Work
         rdf:about="">
        <dc:format>image/svg+xml</dc:format>
        <dc:type
           rdf:resource="http://purl.org/dc/dcmitype/StillImage" />
        <dc:title></dc:title>
      </cc:Work>
    </rdf:RDF>
  </metadata>
  <g
     inkscape:label="Layer 1"
     inkscape:groupmode="layer"
     id="layer1">
    <path
       style="fill:#ffffff;stroke:#ff0000;stroke-width:1px;stroke-linecap:butt;stroke-linejoin:miter;stroke-opacity:1"
       d="m 313.34375,311.71875 c -17.21801,7.02798 -37.53107,4.99315 -53.1769,16.08249 -9.13556,8.62708 -2.10899,21.54185 1.89688,30.8977 4.81181,7.93898 13.3056,16.82668 8.43738,26.78603 -4.56511,11.15739 -19.8288,8.22124 -25.38882,18.61049 -5.85773,7.10348 -1.18651,16.95712 6.49705,20.16821 5.98353,3.39818 13.42472,5.63371 16.89538,12.09494 0.11414,9.76882 -1.61491,20.96646 6.17727,28.52711 6.54679,8.16903 18.79936,11.00148 28.10527,6.00491 13.27017,-4.88225 22.00608,-16.57241 32.03753,-25.87709 9.2256,-4.99942 17.93211,3.83747 23.38325,10.4482 7.49059,8.54609 19.24224,15.06079 30.79021,11.29624 14.0508,-4.11661 23.5292,-16.75469 30.37626,-28.97923 6.384,-12.7136 6.56791,-30.4359 -5.15971,-40.19488 -14.75127,-13.75966 -38.05024,-17.51411 -47.83309,-36.62178 -5.43202,-10.3055 -0.56306,-22.46577 -4.63742,-33.11133 -11.99547,-13.28966 -31.23496,-17.05613 -48.40054,-16.13201 z"
       id="path2985"
       inkscape:connector-curvature="0"
       inkscape:export-filename="/media/STORAGE_1/Documents/Dropbox/ENPH 459/seed_part_path.png"
       inkscape:export-xdpi="200"
       inkscape:export-ydpi="200" />
    <text
       xml:space="preserve"
       style="font-size:16px;font-style:normal;font-weight:normal;line-height:125%;letter-spacing:0px;word-spacing:0px;fill:#ff0000;fill-opacity:1;stroke:none;font-family:Sans"
       x="260"
       y="282.36218"
       id="text2997"
       sodipodi:linespacing="125%"
       inkscape:export-filename="/media/STORAGE_1/Documents/Dropbox/ENPH 459/seed_part_path.png"
       inkscape:export-xdpi="200"
       inkscape:export-ydpi="200"><tspan
         sodipodi:role="line"
         id="tspan2999"
         x="260"
         y="282.36218">Seed Volume: input</tspan></text>
    <path
       sodipodi:type="arc"
       id="path3003"
       sodipodi:cx="272.5"
       sodipodi:cy="334.86218"
       sodipodi:rx="2.5"
       sodipodi:ry="2.5"
       d="m 275,334.86218 a 2.5,2.5 0 1 1 -5,0 2.5,2.5 0 1 1 5,0 z"
       transform="translate(-5,-5)"
       style="fill:#0000ff"
       inkscape:export-filename="/media/STORAGE_1/Documents/Dropbox/ENPH 459/seed_part_path.png"
       inkscape:export-xdpi="200"
       inkscape:export-ydpi="200" />
    <path
       transform="translate(25,-5)"
       d="m 275,334.86218 a 2.5,2.5 0 1 1 -5,0 2.5,2.5 0 1 1 5,0 z"
       sodipodi:ry="2.5"
       sodipodi:rx="2.5"
       sodipodi:cy="334.86218"
       sodipodi:cx="272.5"
       id="path3005"
       sodipodi:type="arc"
       style="fill:#0000ff"
       inkscape:export-filename="/media/STORAGE_1/Documents/Dropbox/ENPH 459/seed_part_path.png"
       inkscape:export-xdpi="200"
       inkscape:export-ydpi="200" />
    <path
       sodipodi:type="arc"
       id="path3007"
       sodipodi:cx="272.5"
       sodipodi:cy="334.86218"
       sodipodi:rx="2.5"
       sodipodi:ry="2.5"
       d="m 275,334.86218 a 2.5,2.5 0 1 1 -5,0 2.5,2.5 0 1 1 5,0 z"
       transform="translate(50,-5.3571429)"
       style="fill:#0000ff"
       inkscape:export-filename="/media/STORAGE_1/Documents/Dropbox/ENPH 459/seed_part_path.png"
       inkscape:export-xdpi="200"
       inkscape:export-ydpi="200" />
    <path
       transform="translate(75,-5)"
       d="m 275,334.86218 a 2.5,2.5 0 1 1 -5,0 2.5,2.5 0 1 1 5,0 z"
       sodipodi:ry="2.5"
       sodipodi:rx="2.5"
       sodipodi:cy="334.86218"
       sodipodi:cx="272.5"
       id="path3009"
       sodipodi:type="arc"
       style="fill:#0000ff"
       inkscape:export-filename="/media/STORAGE_1/Documents/Dropbox/ENPH 459/seed_part_path.png"
       inkscape:export-xdpi="200"
       inkscape:export-ydpi="200" />
    <path
       transform="translate(-5.3571429,20)"
       d="m 275,334.86218 a 2.5,2.5 0 1 1 -5,0 2.5,2.5 0 1 1 5,0 z"
       sodipodi:ry="2.5"
       sodipodi:rx="2.5"
       sodipodi:cy="334.86218"
       sodipodi:cx="272.5"
       id="path3013"
       sodipodi:type="arc"
       style="fill:#0000ff"
       inkscape:export-filename="/media/STORAGE_1/Documents/Dropbox/ENPH 459/seed_part_path.png"
       inkscape:export-xdpi="200"
       inkscape:export-ydpi="200" />
    <path
       sodipodi:type="arc"
       id="path3015"
       sodipodi:cx="272.5"
       sodipodi:cy="334.86218"
       sodipodi:rx="2.5"
       sodipodi:ry="2.5"
       d="m 275,334.86218 a 2.5,2.5 0 1 1 -5,0 2.5,2.5 0 1 1 5,0 z"
       transform="translate(24.642857,20)"
       style="fill:#0000ff"
       inkscape:export-filename="/media/STORAGE_1/Documents/Dropbox/ENPH 459/seed_part_path.png"
       inkscape:export-xdpi="200"
       inkscape:export-ydpi="200" />
    <path
       transform="translate(49.642857,19.642857)"
       d="m 275,334.86218 a 2.5,2.5 0 1 1 -5,0 2.5,2.5 0 1 1 5,0 z"
       sodipodi:ry="2.5"
       sodipodi:rx="2.5"
       sodipodi:cy="334.86218"
       sodipodi:cx="272.5"
       id="path3017"
       sodipodi:type="arc"
       style="fill:#0000ff"
       inkscape:export-filename="/media/STORAGE_1/Documents/Dropbox/ENPH 459/seed_part_path.png"
       inkscape:export-xdpi="200"
       inkscape:export-ydpi="200" />
    <path
       sodipodi:type="arc"
       id="path3019"
       sodipodi:cx="272.5"
       sodipodi:cy="334.86218"
       sodipodi:rx="2.5"
       sodipodi:ry="2.5"
       d="m 275,334.86218 a 2.5,2.5 0 1 1 -5,0 2.5,2.5 0 1 1 5,0 z"
       transform="translate(74.642857,20)"
       style="fill:#0000ff"
       inkscape:export-filename="/media/STORAGE_1/Documents/Dropbox/ENPH 459/seed_part_path.png"
       inkscape:export-xdpi="200"
       inkscape:export-ydpi="200" />
    <path
       transform="translate(25,45)"
       d="m 275,334.86218 a 2.5,2.5 0 1 1 -5,0 2.5,2.5 0 1 1 5,0 z"
       sodipodi:ry="2.5"
       sodipodi:rx="2.5"
       sodipodi:cy="334.86218"
       sodipodi:cx="272.5"
       id="path3025"
       sodipodi:type="arc"
       style="fill:#0000ff"
       inkscape:export-filename="/media/STORAGE_1/Documents/Dropbox/ENPH 459/seed_part_path.png"
       inkscape:export-xdpi="200"
       inkscape:export-ydpi="200" />
    <path
       sodipodi:type="arc"
       id="path3027"
       sodipodi:cx="272.5"
       sodipodi:cy="334.86218"
       sodipodi:rx="2.5"
       sodipodi:ry="2.5"
       d="m 275,334.86218 a 2.5,2.5 0 1 1 -5,0 2.5,2.5 0 1 1 5,0 z"
       transform="translate(50,44.642857)"
       style="fill:#0000ff"
       inkscape:export-filename="/media/STORAGE_1/Documents/Dropbox/ENPH 459/seed_part_path.png"
       inkscape:export-xdpi="200"
       inkscape:export-ydpi="200" />
    <path
       transform="translate(75,45)"
       d="m 275,334.86218 a 2.5,2.5 0 1 1 -5,0 2.5,2.5 0 1 1 5,0 z"
       sodipodi:ry="2.5"
       sodipodi:rx="2.5"
       sodipodi:cy="334.86218"
       sodipodi:cx="272.5"
       id="path3029"
       sodipodi:type="arc"
       style="fill:#0000ff"
       inkscape:export-filename="/media/STORAGE_1/Documents/Dropbox/ENPH 459/seed_part_path.png"
       inkscape:export-xdpi="200"
       inkscape:export-ydpi="200" />
    <path
       sodipodi:type="arc"
       id="path3031"
       sodipodi:cx="272.5"
       sodipodi:cy="334.86218"
       sodipodi:rx="2.5"
       sodipodi:ry="2.5"
       d="m 275,334.86218 a 2.5,2.5 0 1 1 -5,0 2.5,2.5 0 1 1 5,0 z"
       transform="translate(100.35714,45.357143)"
       style="fill:#0000ff"
       inkscape:export-filename="/media/STORAGE_1/Documents/Dropbox/ENPH 459/seed_part_path.png"
       inkscape:export-xdpi="200"
       inkscape:export-ydpi="200" />
    <path
       transform="translate(-4.6428571,69.285714)"
       d="m 275,334.86218 a 2.5,2.5 0 1 1 -5,0 2.5,2.5 0 1 1 5,0 z"
       sodipodi:ry="2.5"
       sodipodi:rx="2.5"
       sodipodi:cy="334.86218"
       sodipodi:cx="272.5"
       id="path3033"
       sodipodi:type="arc"
       style="fill:#0000ff"
       inkscape:export-filename="/media/STORAGE_1/Documents/Dropbox/ENPH 459/seed_part_path.png"
       inkscape:export-xdpi="200"
       inkscape:export-ydpi="200" />
    <path
       sodipodi:type="arc"
       id="path3035"
       sodipodi:cx="272.5"
       sodipodi:cy="334.86218"
       sodipodi:rx="2.5"
       sodipodi:ry="2.5"
       d="m 275,334.86218 a 2.5,2.5 0 1 1 -5,0 2.5,2.5 0 1 1 5,0 z"
       transform="translate(25.357143,69.285714)"
       style="fill:#0000ff"
       inkscape:export-filename="/media/STORAGE_1/Documents/Dropbox/ENPH 459/seed_part_path.png"
       inkscape:export-xdpi="200"
       inkscape:export-ydpi="200" />
    <path
       transform="translate(50.357143,68.928571)"
       d="m 275,334.86218 a 2.5,2.5 0 1 1 -5,0 2.5,2.5 0 1 1 5,0 z"
       sodipodi:ry="2.5"
       sodipodi:rx="2.5"
       sodipodi:cy="334.86218"
       sodipodi:cx="272.5"
       id="path3037"
       sodipodi:type="arc"
       style="fill:#0000ff"
       inkscape:export-filename="/media/STORAGE_1/Documents/Dropbox/ENPH 459/seed_part_path.png"
       inkscape:export-xdpi="200"
       inkscape:export-ydpi="200" />
    <path
       sodipodi:type="arc"
       id="path3039"
       sodipodi:cx="272.5"
       sodipodi:cy="334.86218"
       sodipodi:rx="2.5"
       sodipodi:ry="2.5"
       d="m 275,334.86218 a 2.5,2.5 0 1 1 -5,0 2.5,2.5 0 1 1 5,0 z"
       transform="translate(75.357143,69.285714)"
       style="fill:#0000ff"
       inkscape:export-filename="/media/STORAGE_1/Documents/Dropbox/ENPH 459/seed_part_path.png"
       inkscape:export-xdpi="200"
       inkscape:export-ydpi="200" />
    <path
       transform="translate(100.71428,69.642857)"
       d="m 275,334.86218 a 2.5,2.5 0 1 1 -5,0 2.5,2.5 0 1 1 5,0 z"
       sodipodi:ry="2.5"
       sodipodi:rx="2.5"
       sodipodi:cy="334.86218"
       sodipodi:cx="272.5"
       id="path3041"
       sodipodi:type="arc"
       style="fill:#0000ff"
       inkscape:export-filename="/media/STORAGE_1/Documents/Dropbox/ENPH 459/seed_part_path.png"
       inkscape:export-xdpi="200"
       inkscape:export-ydpi="200" />
    <path
       sodipodi:type="arc"
       id="path3043"
       sodipodi:cx="272.5"
       sodipodi:cy="334.86218"
       sodipodi:rx="2.5"
       sodipodi:ry="2.5"
       d="m 275,334.86218 a 2.5,2.5 0 1 1 -5,0 2.5,2.5 0 1 1 5,0 z"
       transform="translate(-5.3571428,95.357143)"
       style="fill:#0000ff"
       inkscape:export-filename="/media/STORAGE_1/Documents/Dropbox/ENPH 459/seed_part_path.png"
       inkscape:export-xdpi="200"
       inkscape:export-ydpi="200" />
    <path
       transform="translate(24.642857,95.357143)"
       d="m 275,334.86218 a 2.5,2.5 0 1 1 -5,0 2.5,2.5 0 1 1 5,0 z"
       sodipodi:ry="2.5"
       sodipodi:rx="2.5"
       sodipodi:cy="334.86218"
       sodipodi:cx="272.5"
       id="path3045"
       sodipodi:type="arc"
       style="fill:#0000ff"
       inkscape:export-filename="/media/STORAGE_1/Documents/Dropbox/ENPH 459/seed_part_path.png"
       inkscape:export-xdpi="200"
       inkscape:export-ydpi="200" />
    <path
       sodipodi:type="arc"
       id="path3047"
       sodipodi:cx="272.5"
       sodipodi:cy="334.86218"
       sodipodi:rx="2.5"
       sodipodi:ry="2.5"
       d="m 275,334.86218 a 2.5,2.5 0 1 1 -5,0 2.5,2.5 0 1 1 5,0 z"
       transform="translate(49.642857,95)"
       style="fill:#0000ff"
       inkscape:export-filename="/media/STORAGE_1/Documents/Dropbox/ENPH 459/seed_part_path.png"
       inkscape:export-xdpi="200"
       inkscape:export-ydpi="200" />
    <path
       transform="translate(74.642857,95.357143)"
       d="m 275,334.86218 a 2.5,2.5 0 1 1 -5,0 2.5,2.5 0 1 1 5,0 z"
       sodipodi:ry="2.5"
       sodipodi:rx="2.5"
       sodipodi:cy="334.86218"
       sodipodi:cx="272.5"
       id="path3049"
       sodipodi:type="arc"
       style="fill:#0000ff"
       inkscape:export-filename="/media/STORAGE_1/Documents/Dropbox/ENPH 459/seed_part_path.png"
       inkscape:export-xdpi="200"
       inkscape:export-ydpi="200" />
    <path
       sodipodi:type="arc"
       id="path3051"
       sodipodi:cx="272.5"
       sodipodi:cy="334.86218"
       sodipodi:rx="2.5"
       sodipodi:ry="2.5"
       d="m 275,334.86218 a 2.5,2.5 0 1 1 -5,0 2.5,2.5 0 1 1 5,0 z"
       transform="translate(99.999994,95.714286)"
       style="fill:#0000ff"
       inkscape:export-filename="/media/STORAGE_1/Documents/Dropbox/ENPH 459/seed_part_path.png"
       inkscape:export-xdpi="200"
       inkscape:export-ydpi="200" />
    <path
       sodipodi:type="arc"
       id="path3055"
       sodipodi:cx="272.5"
       sodipodi:cy="334.86218"
       sodipodi:rx="2.5"
       sodipodi:ry="2.5"
       d="m 275,334.86218 a 2.5,2.5 0 1 1 -5,0 2.5,2.5 0 1 1 5,0 z"
       transform="translate(25,121.07143)"
       style="fill:#0000ff"
       inkscape:export-filename="/media/STORAGE_1/Documents/Dropbox/ENPH 459/seed_part_path.png"
       inkscape:export-xdpi="200"
       inkscape:export-ydpi="200" />
    <path
       transform="translate(50,120.71429)"
       d="m 275,334.86218 a 2.5,2.5 0 1 1 -5,0 2.5,2.5 0 1 1 5,0 z"
       sodipodi:ry="2.5"
       sodipodi:rx="2.5"
       sodipodi:cy="334.86218"
       sodipodi:cx="272.5"
       id="path3057"
       sodipodi:type="arc"
       style="fill:#0000ff"
       inkscape:export-filename="/media/STORAGE_1/Documents/Dropbox/ENPH 459/seed_part_path.png"
       inkscape:export-xdpi="200"
       inkscape:export-ydpi="200" />
    <path
       transform="translate(100.35714,121.42857)"
       d="m 275,334.86218 a 2.5,2.5 0 1 1 -5,0 2.5,2.5 0 1 1 5,0 z"
       sodipodi:ry="2.5"
       sodipodi:rx="2.5"
       sodipodi:cy="334.86218"
       sodipodi:cx="272.5"
       id="path3061"
       sodipodi:type="arc"
       style="fill:#0000ff"
       inkscape:export-filename="/media/STORAGE_1/Documents/Dropbox/ENPH 459/seed_part_path.png"
       inkscape:export-xdpi="200"
       inkscape:export-ydpi="200" />
    <path
       sodipodi:type="arc"
       id="path3063"
       sodipodi:cx="272.5"
       sodipodi:cy="334.86218"
       sodipodi:rx="2.5"
       sodipodi:ry="2.5"
       d="m 275,334.86218 a 2.5,2.5 0 1 1 -5,0 2.5,2.5 0 1 1 5,0 z"
       transform="matrix(0,1,-1,0,757.54075,147.18361)"
       style="fill:#0000ff"
       inkscape:export-filename="/media/STORAGE_1/Documents/Dropbox/ENPH 459/seed_part_path.png"
       inkscape:export-xdpi="200"
       inkscape:export-ydpi="200" />
    <path
       transform="matrix(0,1,-1,0,732.89789,131.82647)"
       d="m 275,334.86218 a 2.5,2.5 0 1 1 -5,0 2.5,2.5 0 1 1 5,0 z"
       sodipodi:ry="2.5"
       sodipodi:rx="2.5"
       sodipodi:cy="334.86218"
       sodipodi:cx="272.5"
       id="path3065"
       sodipodi:type="arc"
       style="fill:#0000ff"
       inkscape:export-filename="/media/STORAGE_1/Documents/Dropbox/ENPH 459/seed_part_path.png"
       inkscape:export-xdpi="200"
       inkscape:export-ydpi="200" />
    <path
       sodipodi:type="arc"
       id="path3067"
       sodipodi:cx="272.5"
       sodipodi:cy="334.86218"
       sodipodi:rx="2.5"
       sodipodi:ry="2.5"
       d="m 275,334.86218 a 2.5,2.5 0 1 1 -5,0 2.5,2.5 0 1 1 5,0 z"
       transform="matrix(0,1,-1,0,733.25503,156.82647)"
       style="fill:#0000ff"
       inkscape:export-filename="/media/STORAGE_1/Documents/Dropbox/ENPH 459/seed_part_path.png"
       inkscape:export-xdpi="200"
       inkscape:export-ydpi="200" />
    <path
       transform="matrix(0,1,-1,0,732.89789,181.82647)"
       d="m 275,334.86218 a 2.5,2.5 0 1 1 -5,0 2.5,2.5 0 1 1 5,0 z"
       sodipodi:ry="2.5"
       sodipodi:rx="2.5"
       sodipodi:cy="334.86218"
       sodipodi:cx="272.5"
       id="path3069"
       sodipodi:type="arc"
       style="fill:#0000ff"
       inkscape:export-filename="/media/STORAGE_1/Documents/Dropbox/ENPH 459/seed_part_path.png"
       inkscape:export-xdpi="200"
       inkscape:export-ydpi="200" />
    <text
       xml:space="preserve"
       style="font-size:16px;font-style:normal;font-weight:normal;line-height:125%;letter-spacing:0px;word-spacing:0px;fill:#0000ff;fill-opacity:1;stroke:none;font-family:Sans"
       x="440"
       y="302.36218"
       id="text3073"
       sodipodi:linespacing="125%"
       inkscape:export-filename="/media/STORAGE_1/Documents/Dropbox/ENPH 459/seed_part_path.png"
       inkscape:export-xdpi="200"
       inkscape:export-ydpi="200"><tspan
         sodipodi:role="line"
         id="tspan3075"
         x="440"
         y="302.36218">Seeds: created by iterating through</tspan><tspan
         sodipodi:role="line"
         x="440"
         y="322.36218"
         id="tspan3920">input seed volume</tspan></text>
    <rect
       style="fill:none;stroke:#000000;stroke-width:1;stroke-miterlimit:4;stroke-dasharray:1,2;stroke-dashoffset:0"
       id="rect3077"
       width="35"
       height="35"
       x="305"
       y="337.36218"
       inkscape:export-filename="/media/STORAGE_1/Documents/Dropbox/ENPH 459/seed_part_path.png"
       inkscape:export-xdpi="200"
       inkscape:export-ydpi="200" />
    <path
       style="fill:none;stroke:#000000;stroke-width:1.05929518;stroke-linecap:butt;stroke-linejoin:miter;stroke-opacity:1;stroke-miterlimit:4;stroke-dasharray:1.05929518,1.05929518;stroke-dashoffset:0"
       d="m 340.06105,337.36218 100.98957,0"
       id="path3079"
       inkscape:connector-curvature="0"
       sodipodi:nodetypes="cc"
       inkscape:export-filename="/media/STORAGE_1/Documents/Dropbox/ENPH 459/seed_part_path.png"
       inkscape:export-xdpi="200"
       inkscape:export-ydpi="200" />
    <path
       style="fill:none;stroke:#000000;stroke-width:1;stroke-linecap:butt;stroke-linejoin:miter;stroke-opacity:1;stroke-miterlimit:4;stroke-dasharray:1,1;stroke-dashoffset:0"
       d="m 340,372.36218 100,90"
       id="path3081"
       inkscape:connector-curvature="0"
       inkscape:export-filename="/media/STORAGE_1/Documents/Dropbox/ENPH 459/seed_part_path.png"
       inkscape:export-xdpi="200"
       inkscape:export-ydpi="200" />
    <rect
       style="fill:none;stroke:#000000;stroke-width:1;stroke-miterlimit:4;stroke-dasharray:1,1;stroke-dashoffset:0"
       id="rect3083"
       width="125"
       height="125"
       x="440.6066"
       y="337.36218"
       inkscape:export-filename="/media/STORAGE_1/Documents/Dropbox/ENPH 459/seed_part_path.png"
       inkscape:export-xdpi="200"
       inkscape:export-ydpi="200" />
    <path
       style="fill:#0000ff"
       sodipodi:type="arc"
       id="path3085"
       sodipodi:cx="272.5"
       sodipodi:cy="334.86218"
       sodipodi:rx="2.5"
       sodipodi:ry="2.5"
       d="m 275,334.86218 a 2.5,2.5 0 1 1 -5,0 2.5,2.5 0 1 1 5,0 z"
       transform="matrix(3.4243661,0,0,3.4243661,-432.19991,-747.23388)"
       inkscape:export-filename="/media/STORAGE_1/Documents/Dropbox/ENPH 459/seed_part_path.png"
       inkscape:export-xdpi="200"
       inkscape:export-ydpi="200" />
    <path
       style="fill:#008000"
       sodipodi:type="arc"
       id="path3087"
       sodipodi:cx="272.5"
       sodipodi:cy="334.86218"
       sodipodi:rx="2.5"
       sodipodi:ry="2.5"
       d="m 275,334.86218 a 2.5,2.5 0 1 1 -5,0 2.5,2.5 0 1 1 5,0 z"
       transform="matrix(0,1,-1,0,848.06323,135.60456)"
       inkscape:export-filename="/media/STORAGE_1/Documents/Dropbox/ENPH 459/seed_part_path.png"
       inkscape:export-xdpi="200"
       inkscape:export-ydpi="200" />
    <path
       transform="matrix(0,1,-1,0,827.34715,150.76683)"
       d="m 275,334.86218 a 2.5,2.5 0 1 1 -5,0 2.5,2.5 0 1 1 5,0 z"
       sodipodi:ry="2.5"
       sodipodi:rx="2.5"
       sodipodi:cy="334.86218"
       sodipodi:cx="272.5"
       id="path3089"
       sodipodi:type="arc"
       style="fill:#008000"
       inkscape:export-filename="/media/STORAGE_1/Documents/Dropbox/ENPH 459/seed_part_path.png"
       inkscape:export-xdpi="200"
       inkscape:export-ydpi="200" />
    <path
       style="fill:#008000"
       sodipodi:type="arc"
       id="path3091"
       sodipodi:cx="272.5"
       sodipodi:cy="334.86218"
       sodipodi:rx="2.5"
       sodipodi:ry="2.5"
       d="m 275,334.86218 a 2.5,2.5 0 1 1 -5,0 2.5,2.5 0 1 1 5,0 z"
       transform="matrix(0,1,-1,0,790.98166,133.08916)"
       inkscape:export-filename="/media/STORAGE_1/Documents/Dropbox/ENPH 459/seed_part_path.png"
       inkscape:export-xdpi="200"
       inkscape:export-ydpi="200" />
    <path
       transform="matrix(0,1,-1,0,863.47805,114.2857)"
       d="m 275,334.86218 a 2.5,2.5 0 1 1 -5,0 2.5,2.5 0 1 1 5,0 z"
       sodipodi:ry="2.5"
       sodipodi:rx="2.5"
       sodipodi:cy="334.86218"
       sodipodi:cx="272.5"
       id="path3093"
       sodipodi:type="arc"
       style="fill:#008000"
       inkscape:export-filename="/media/STORAGE_1/Documents/Dropbox/ENPH 459/seed_part_path.png"
       inkscape:export-xdpi="200"
       inkscape:export-ydpi="200" />
    <path
       style="fill:#008000"
       sodipodi:type="arc"
       id="path3095"
       sodipodi:cx="272.5"
       sodipodi:cy="334.86218"
       sodipodi:rx="2.5"
       sodipodi:ry="2.5"
       d="m 275,334.86218 a 2.5,2.5 0 1 1 -5,0 2.5,2.5 0 1 1 5,0 z"
       transform="matrix(0,1,-1,0,817.38252,91.6042)"
       inkscape:export-filename="/media/STORAGE_1/Documents/Dropbox/ENPH 459/seed_part_path.png"
       inkscape:export-xdpi="200"
       inkscape:export-ydpi="200" />
    <path
       transform="matrix(0,1,-1,0,836.43852,99.249054)"
       d="m 275,334.86218 a 2.5,2.5 0 1 1 -5,0 2.5,2.5 0 1 1 5,0 z"
       sodipodi:ry="2.5"
       sodipodi:rx="2.5"
       sodipodi:cy="334.86218"
       sodipodi:cx="272.5"
       id="path3097"
       sodipodi:type="arc"
       style="fill:#008000"
       inkscape:export-filename="/media/STORAGE_1/Documents/Dropbox/ENPH 459/seed_part_path.png"
       inkscape:export-xdpi="200"
       inkscape:export-ydpi="200" />
    <path
       style="fill:#008000"
       sodipodi:type="arc"
       id="path3099"
       sodipodi:cx="272.5"
       sodipodi:cy="334.86218"
       sodipodi:rx="2.5"
       sodipodi:ry="2.5"
       d="m 275,334.86218 a 2.5,2.5 0 1 1 -5,0 2.5,2.5 0 1 1 5,0 z"
       transform="matrix(0,1,-1,0,847.93092,158.71063)"
       inkscape:export-filename="/media/STORAGE_1/Documents/Dropbox/ENPH 459/seed_part_path.png"
       inkscape:export-xdpi="200"
       inkscape:export-ydpi="200" />
    <path
       transform="matrix(0,1,-1,0,823.55908,121.47241)"
       d="m 275,334.86218 a 2.5,2.5 0 1 1 -5,0 2.5,2.5 0 1 1 5,0 z"
       sodipodi:ry="2.5"
       sodipodi:rx="2.5"
       sodipodi:cy="334.86218"
       sodipodi:cx="272.5"
       id="path3101"
       sodipodi:type="arc"
       style="fill:#008000"
       inkscape:export-filename="/media/STORAGE_1/Documents/Dropbox/ENPH 459/seed_part_path.png"
       inkscape:export-xdpi="200"
       inkscape:export-ydpi="200" />
    <path
       style="fill:#008000"
       sodipodi:type="arc"
       id="path3103"
       sodipodi:cx="272.5"
       sodipodi:cy="334.86218"
       sodipodi:rx="2.5"
       sodipodi:ry="2.5"
       d="m 275,334.86218 a 2.5,2.5 0 1 1 -5,0 2.5,2.5 0 1 1 5,0 z"
       transform="matrix(0,1,-1,0,810.4271,162.63613)"
       inkscape:export-filename="/media/STORAGE_1/Documents/Dropbox/ENPH 459/seed_part_path.png"
       inkscape:export-xdpi="200"
       inkscape:export-ydpi="200" />
    <path
       sodipodi:type="arc"
       style="fill:none;stroke:#000000"
       id="path3105"
       sodipodi:cx="527.5"
       sodipodi:cy="424.86218"
       sodipodi:rx="27.5"
       sodipodi:ry="27.5"
       d="m 555,424.86218 a 27.5,27.5 0 1 1 -55,0 27.5,27.5 0 1 1 55,0 z"
       transform="matrix(1.7397959,0,0,1.7397959,-415.95664,-340.38274)"
       inkscape:export-filename="/media/STORAGE_1/Documents/Dropbox/ENPH 459/seed_part_path.png"
       inkscape:export-xdpi="200"
       inkscape:export-ydpi="200" />
    <text
       xml:space="preserve"
       style="font-size:16px;font-style:normal;font-weight:normal;line-height:125%;letter-spacing:0px;word-spacing:0px;fill:#008000;fill-opacity:1;stroke:none;font-family:Sans"
       x="430"
       y="482.36218"
       id="text3875"
       sodipodi:linespacing="125%"
       inkscape:export-filename="/media/STORAGE_1/Documents/Dropbox/ENPH 459/seed_part_path.png"
       inkscape:export-xdpi="200"
       inkscape:export-ydpi="200"><tspan
         sodipodi:role="line"
         x="430"
         y="482.36218"
         id="tspan3879">Particles: created randomly</tspan><tspan
         sodipodi:role="line"
         x="430"
         y="502.36218"
         id="tspan3883">within sphere of radius 1 around</tspan><tspan
         sodipodi:role="line"
         x="430"
         y="522.36218"
         id="tspan3885">each seed.</tspan></text>
    <path
       transform="matrix(0,1,-1,0,645.87727,301.63956)"
       d="m 275,334.86218 a 2.5,2.5 0 1 1 -5,0 2.5,2.5 0 1 1 5,0 z"
       sodipodi:ry="2.5"
       sodipodi:rx="2.5"
       sodipodi:cy="334.86218"
       sodipodi:cx="272.5"
       id="path3887"
       sodipodi:type="arc"
       style="fill:#008000"
       inkscape:export-filename="/media/STORAGE_1/Documents/Dropbox/ENPH 459/seed_part_path.png"
       inkscape:export-xdpi="200"
       inkscape:export-ydpi="200" />
    <path
       style="fill:none;stroke:#000000;stroke-width:1px;stroke-linecap:butt;stroke-linejoin:miter;stroke-opacity:1"
       d="m 506.51778,648.86254 c -39.00748,-0.71007 -77.39508,-12.60712 -116.55461,-8.57229 -38.2328,-7.8066 -79.35359,3.2942 -109.49527,27.79337 -19.98081,0.21099 -29.86849,-21.37869 -29.52584,-38.78351 -1.03183,-20.65815 2.03267,-41.57866 6.80474,-61.53613 14.30132,-27.84823 48.56527,-32.85519 76.82388,-32.33747 39.82427,0.70201 79.65943,-0.29754 119.47427,0.6769 37.37739,1.32566 75.70134,8.88641 107.13274,30.16406 19.44794,7.37869 29.6986,29.97349 23.31812,49.59816 -4.6233,19.90277 -24.06907,34.02279 -44.46443,32.20125 -14.49903,0.49604 -29.07618,-1.17526 -43.5136,0.79566"
       id="path3889"
       inkscape:connector-curvature="0"
       inkscape:export-filename="/media/STORAGE_1/Documents/Dropbox/ENPH 459/seed_part_path.png"
       inkscape:export-xdpi="200"
       inkscape:export-ydpi="200" />
    <path
       style="fill:none;stroke:#800080;stroke-width:1px;stroke-linecap:butt;stroke-linejoin:miter;stroke-opacity:1"
       d="m 311.51778,575.29111 c 4.719,-15.21073 30.63538,-15.96281 30.51564,2.33839 -4.66102,14.24218 4.02205,37.032 21.9755,26.4137 13.21654,-10.20811 25.01232,-28.09392 43.99597,-25.8579 17.71923,4.59675 8.55634,29.08621 22.64479,37.61722 15.15178,12.57322 36.88968,-0.57745 52.27423,10.11943 4.82449,4.57472 11.97185,12.3135 8.59387,19.36916"
       id="path3898"
       inkscape:connector-curvature="0"
       inkscape:export-filename="/media/STORAGE_1/Documents/Dropbox/ENPH 459/seed_part_path.png"
       inkscape:export-xdpi="200"
       inkscape:export-ydpi="200" />
    <text
       xml:space="preserve"
       style="font-size:16px;font-style:normal;font-weight:normal;line-height:125%;letter-spacing:0px;word-spacing:0px;fill:#800080;fill-opacity:1;stroke:none;font-family:Sans"
       x="330"
       y="672.36218"
       id="text3904"
       sodipodi:linespacing="125%"
       inkscape:export-filename="/media/STORAGE_1/Documents/Dropbox/ENPH 459/seed_part_path.png"
       inkscape:export-xdpi="200"
       inkscape:export-ydpi="200"><tspan
         sodipodi:role="line"
         id="tspan3906"
         x="330"
         y="672.36218">Paths: one, or two traced per particle.</tspan><tspan
         sodipodi:role="line"
         x="330"
         y="692.36218"
         id="tspan3908">For two paths: start in opposite</tspan><tspan
         sodipodi:role="line"
         x="330"
         y="712.36218"
         id="tspan3910">directions.</tspan></text>
    <rect
       style="fill:none;stroke:#000000;stroke-width:1;stroke-miterlimit:4;stroke-dasharray:1, 1;stroke-dashoffset:0"
       id="rect3912"
       width="25"
       height="25"
       x="300"
       y="562.36218"
       inkscape:export-filename="/media/STORAGE_1/Documents/Dropbox/ENPH 459/seed_part_path.png"
       inkscape:export-xdpi="200"
       inkscape:export-ydpi="200" />
    <rect
       style="fill:none;stroke:#000000;stroke-width:1;stroke-miterlimit:4;stroke-dasharray:1, 1;stroke-dashoffset:0"
       id="rect3914"
       width="195"
       height="165"
       x="230"
       y="307.36218"
       inkscape:export-filename="/media/STORAGE_1/Documents/Dropbox/ENPH 459/seed_part_path.png"
       inkscape:export-xdpi="200"
       inkscape:export-ydpi="200" />
    <path
       style="fill:none;stroke:#000000;stroke-width:1;stroke-linecap:butt;stroke-linejoin:miter;stroke-opacity:1;stroke-miterlimit:4;stroke-dasharray:1,1;stroke-dashoffset:0"
       d="m 300,562.36218 -70,-90"
       id="path3916"
       inkscape:connector-curvature="0"
       inkscape:export-filename="/media/STORAGE_1/Documents/Dropbox/ENPH 459/seed_part_path.png"
       inkscape:export-xdpi="200"
       inkscape:export-ydpi="200" />
    <path
       style="fill:none;stroke:#000000;stroke-width:1;stroke-linecap:butt;stroke-linejoin:miter;stroke-opacity:1;stroke-miterlimit:4;stroke-dasharray:1,1;stroke-dashoffset:0"
       d="m 325,562.36218 100,-90"
       id="path3918"
       inkscape:connector-curvature="0"
       inkscape:export-filename="/media/STORAGE_1/Documents/Dropbox/ENPH 459/seed_part_path.png"
       inkscape:export-xdpi="200"
       inkscape:export-ydpi="200" />
  </g>
</svg>
